<?xml version="1.0" encoding="utf-8" ?>
<svg baseProfile="full" height="800" version="1.1" width="800" xmlns="http://www.w3.org/2000/svg" xmlns:ev="http://www.w3.org/2001/xml-events" xmlns:xlink="http://www.w3.org/1999/xlink"><defs /><rect fill="none" height="100%" width="100%" x="0" y="0" /><path d="M 400.0 400.0 C 500.0 400.0, 538.5640646055102 480.0, 600.0 400.0 " fill="none" stroke="#8B4513" stroke-width="2" /><circle cx="445.0" cy="400.0" fill="#D2691E" r="3" /><circle cx="467.5" cy="400.0" fill="#D2691E" r="3" /><circle cx="490.0" cy="400.0" fill="#D2691E" r="3" /><circle cx="512.5" cy="400.0" fill="#D2691E" r="3" /><circle cx="535.0" cy="400.0" fill="#D2691E" r="3" /><path d="M 525.0 400.0 L 519.5623058987491 410.5801345412645 L 509.94427190999915 415.21690426072246 L 500.6737620787507 413.31479122813215 L 495.2917960675006 407.05342302750967 L 495.0 400.0 L 498.5278640450004 395.29771798166024 L 503.1458980337503 394.2936609022291 L 506.2360679774998 396.1957739348194 L 506.6180339887499 398.8244294954151 " fill="none" stroke="#CD853F" stroke-width="1" /><path d="M 400.0 400.0 C 470.71067811865476 470.71067811865476, 441.41104721640335 554.5481322062509, 541.4213562373095 541.4213562373095 " fill="none" stroke="#8B4513" stroke-width="2" /><circle cx="431.81980515339467" cy="431.81980515339467" fill="#D2691E" r="3" /><circle cx="447.72970773009195" cy="447.72970773009195" fill="#D2691E" r="3" /><circle cx="463.6396103067893" cy="463.6396103067893" fill="#D2691E" r="3" /><circle cx="479.5495128834866" cy="479.5495128834866" fill="#D2691E" r="3" /><circle cx="495.4594154601839" cy="495.4594154601839" fill="#D2691E" r="3" /><path d="M 488.3883476483185 488.3883476483185 L 477.0620323953117 492.0246021553 L 466.9823640287548 488.5023164116014 L 461.77212068595037 480.6020790209412 L 462.3939519374459 472.36899844410476 L 467.17514421272205 467.17514421272205 L 472.9947363042657 466.34470529982644 L 476.9701550230248 468.90017287945733 L 477.810238121341 472.43025002562933 L 476.2215887057778 474.559080954668 " fill="none" stroke="#CD853F" stroke-width="1" /><path d="M 400.0 400.0 C 400.0 500.0, 320.0 538.5640646055102, 400.0 600.0 " fill="none" stroke="#8B4513" stroke-width="2" /><circle cx="400.0" cy="445.0" fill="#D2691E" r="3" /><circle cx="400.0" cy="467.5" fill="#D2691E" r="3" /><circle cx="400.0" cy="490.0" fill="#D2691E" r="3" /><circle cx="400.0" cy="512.5" fill="#D2691E" r="3" /><circle cx="400.0" cy="535.0" fill="#D2691E" r="3" /><path d="M 400.0 525.0 L 389.4198654587355 519.5623058987491 L 384.78309573927754 509.94427190999915 L 386.68520877186785 500.6737620787507 L 392.94657697249033 495.2917960675006 L 400.0 495.0 L 404.70228201833976 498.5278640450004 L 405.7063390977709 503.1458980337503 L 403.8042260651806 506.2360679774998 L 401.1755705045849 506.6180339887499 " fill="none" stroke="#CD853F" stroke-width="1" /><path d="M 400.0 400.0 C 329.28932188134524 470.71067811865476, 245.4518677937491 441.41104721640335, 258.5786437626905 541.4213562373095 " fill="none" stroke="#8B4513" stroke-width="2" /><circle cx="368.1801948466054" cy="431.81980515339467" fill="#D2691E" r="3" /><circle cx="352.27029226990805" cy="447.72970773009195" fill="#D2691E" r="3" /><circle cx="336.3603896932107" cy="463.6396103067893" fill="#D2691E" r="3" /><circle cx="320.4504871165134" cy="479.5495128834866" fill="#D2691E" r="3" /><circle cx="304.5405845398161" cy="495.4594154601839" fill="#D2691E" r="3" /><path d="M 311.6116523516816 488.3883476483185 L 307.97539784470007 477.0620323953117 L 311.4976835883987 466.9823640287548 L 319.3979209790589 461.77212068595037 L 327.6310015558953 462.3939519374459 L 332.824855787278 467.17514421272205 L 333.6552947001736 472.9947363042657 L 331.0998271205427 476.9701550230248 L 327.5697499743707 477.810238121341 L 325.44091904533207 476.2215887057778 " fill="none" stroke="#CD853F" stroke-width="1" /><path d="M 400.0 400.0 C 300.0 400.0, 261.4359353944898 320.00000000000006, 200.0 400.0 " fill="none" stroke="#8B4513" stroke-width="2" /><circle cx="355.0" cy="400.0" fill="#D2691E" r="3" /><circle cx="332.5" cy="400.0" fill="#D2691E" r="3" /><circle cx="310.0" cy="400.0" fill="#D2691E" r="3" /><circle cx="287.5" cy="400.0" fill="#D2691E" r="3" /><circle cx="265.0" cy="400.0" fill="#D2691E" r="3" /><path d="M 275.0 400.0 L 280.43769410125094 389.4198654587355 L 290.05572809000085 384.78309573927754 L 299.3262379212493 386.68520877186785 L 304.7082039324994 392.94657697249033 L 305.0 400.0 L 301.4721359549996 404.70228201833976 L 296.8541019662497 405.7063390977709 L 293.7639320225002 403.8042260651806 L 293.3819660112501 401.1755705045849 " fill="none" stroke="#CD853F" stroke-width="1" /><path d="M 400.0 400.0 C 329.28932188134524 329.28932188134524, 358.5889527835967 245.45186779374907, 258.5786437626905 258.5786437626905 " fill="none" stroke="#8B4513" stroke-width="2" /><circle cx="368.18019484660533" cy="368.1801948466054" fill="#D2691E" r="3" /><circle cx="352.27029226990805" cy="352.27029226990805" fill="#D2691E" r="3" /><circle cx="336.3603896932107" cy="336.3603896932107" fill="#D2691E" r="3" /><circle cx="320.4504871165134" cy="320.4504871165134" fill="#D2691E" r="3" /><circle cx="304.54058453981605" cy="304.5405845398161" fill="#D2691E" r="3" /><path d="M 311.6116523516815 311.6116523516816 L 322.9379676046883 307.97539784470007 L 333.0176359712452 311.4976835883987 L 338.22787931404963 319.3979209790589 L 337.6060480625541 327.6310015558953 L 332.82485578727795 332.824855787278 L 327.00526369573436 333.6552947001736 L 323.0298449769752 331.0998271205427 L 322.189761878659 327.5697499743707 L 323.7784112942222 325.44091904533207 " fill="none" stroke="#CD853F" stroke-width="1" /><path d="M 400.0 400.0 C 400.0 300.0, 480.0 261.43593539448983, 399.99999999999994 200.0 " fill="none" stroke="#8B4513" stroke-width="2" /><circle cx="400.0" cy="355.0" fill="#D2691E" r="3" /><circle cx="400.0" cy="332.5" fill="#D2691E" r="3" /><circle cx="400.0" cy="310.0" fill="#D2691E" r="3" /><circle cx="400.0" cy="287.5" fill="#D2691E" r="3" /><circle cx="400.0" cy="265.0" fill="#D2691E" r="3" /><path d="M 400.0 275.0 L 410.5801345412645 280.43769410125094 L 415.21690426072246 290.05572809000085 L 413.31479122813215 299.3262379212493 L 407.05342302750967 304.7082039324994 L 400.0 305.0 L 395.29771798166024 301.4721359549996 L 394.2936609022291 296.8541019662497 L 396.1957739348194 293.7639320225002 L 398.8244294954151 293.3819660112501 " fill="none" stroke="#CD853F" stroke-width="1" /><path d="M 400.0 400.0 C 470.71067811865476 329.28932188134524, 554.5481322062509 358.5889527835967, 541.4213562373095 258.5786437626905 " fill="none" stroke="#8B4513" stroke-width="2" /><circle cx="431.8198051533946" cy="368.18019484660533" fill="#D2691E" r="3" /><circle cx="447.72970773009195" cy="352.27029226990805" fill="#D2691E" r="3" /><circle cx="463.6396103067893" cy="336.3603896932107" fill="#D2691E" r="3" /><circle cx="479.54951288348656" cy="320.4504871165134" fill="#D2691E" r="3" /><circle cx="495.4594154601839" cy="304.54058453981605" fill="#D2691E" r="3" /><path d="M 488.3883476483184 311.6116523516815 L 492.02460215529993 322.9379676046883 L 488.5023164116013 333.0176359712452 L 480.6020790209411 338.22787931404963 L 472.3689984441047 337.6060480625541 L 467.175144212722 332.82485578727795 L 466.3447052998264 327.0052636957343 L 468.9001728794573 323.0298449769752 L 472.4302500256293 322.189761878659 L 474.55908095466793 323.7784112942222 " fill="none" stroke="#CD853F" stroke-width="1" /><path d="M 400.0 400.0 Q 448.2962913144534 412.94095225512604, 430.0 400.0 Q 448.2962913144534 387.05904774487396, 400.0 400.0" fill="#8B4513" fill-opacity="0.2" stroke="#8B4513" stroke-width="1" /><path d="M 400.0 400.0 Q 435.3553390593274 435.3553390593274, 425.98076211353316 415.0 Q 448.2962913144534 412.94095225512604, 400.0 400.0" fill="#8B4513" fill-opacity="0.2" stroke="#8B4513" stroke-width="1" /><path d="M 400.0 400.0 Q 412.94095225512604 448.2962913144534, 415.0 425.98076211353316 Q 435.3553390593274 435.3553390593274, 400.0 400.0" fill="#8B4513" fill-opacity="0.2" stroke="#8B4513" stroke-width="1" /><path d="M 400.0 400.0 Q 387.05904774487396 448.2962913144534, 400.0 430.0 Q 412.94095225512604 448.2962913144534, 400.0 400.0" fill="#8B4513" fill-opacity="0.2" stroke="#8B4513" stroke-width="1" /><path d="M 400.0 400.0 Q 364.6446609406726 435.3553390593274, 385.0 425.98076211353316 Q 387.05904774487396 448.2962913144534, 400.0 400.0" fill="#8B4513" fill-opacity="0.2" stroke="#8B4513" stroke-width="1" /><path d="M 400.0 400.0 Q 351.7037086855466 412.94095225512604, 374.01923788646684 415.0 Q 364.6446609406726 435.3553390593274, 400.0 400.0" fill="#8B4513" fill-opacity="0.2" stroke="#8B4513" stroke-width="1" /><path d="M 400.0 400.0 Q 351.7037086855466 387.05904774487396, 370.0 400.0 Q 351.7037086855466 412.94095225512604, 400.0 400.0" fill="#8B4513" fill-opacity="0.2" stroke="#8B4513" stroke-width="1" /><path d="M 400.0 400.0 Q 364.6446609406726 364.6446609406726, 374.01923788646684 385.0 Q 351.7037086855466 387.05904774487396, 400.0 400.0" fill="#8B4513" fill-opacity="0.2" stroke="#8B4513" stroke-width="1" /><path d="M 400.0 400.0 Q 387.0590477448739 351.7037086855466, 385.0 374.01923788646684 Q 364.6446609406726 364.6446609406726, 400.0 400.0" fill="#8B4513" fill-opacity="0.2" stroke="#8B4513" stroke-width="1" /><path d="M 400.0 400.0 Q 412.94095225512604 351.7037086855466, 400.0 370.0 Q 387.05904774487396 351.7037086855466, 400.0 400.0" fill="#8B4513" fill-opacity="0.2" stroke="#8B4513" stroke-width="1" /><path d="M 400.0 400.0 Q 435.3553390593274 364.6446609406726, 415.0 374.01923788646684 Q 412.94095225512604 351.7037086855466, 400.0 400.0" fill="#8B4513" fill-opacity="0.2" stroke="#8B4513" stroke-width="1" /><path d="M 400.0 400.0 Q 448.2962913144534 387.0590477448739, 425.98076211353316 385.0 Q 435.3553390593274 364.6446609406726, 400.0 400.0" fill="#8B4513" fill-opacity="0.2" stroke="#8B4513" stroke-width="1" /></svg>