<?xml version="1.0" encoding="UTF-8"?>
<svg width="100" height="100" viewBox="0 0 100 100" xmlns="http://www.w3.org/2000/svg">
  <defs>
    <pattern id="indian-pattern" x="0" y="0" width="50" height="50" patternUnits="userSpaceOnUse">
      <path d="M25,0 C25,13.8 13.8,25 0,25 C13.8,25 25,36.2 25,50 C25,36.2 36.2,25 50,25 C36.2,25 25,13.8 25,0" fill="none" stroke="#8B4513" stroke-width="1" opacity="0.3"/>
      <circle cx="25" cy="25" r="3" fill="#D2691E" opacity="0.2"/>
      <path d="M0,0 C0,13.8 11.2,25 25,25 C11.2,25 0,36.2 0,50" fill="none" stroke="#8B4513" stroke-width="1" opacity="0.3"/>
      <path d="M50,0 C50,13.8 38.8,25 25,25 C38.8,25 50,36.2 50,50" fill="none" stroke="#8B4513" stroke-width="1" opacity="0.3"/>
    </pattern>
  </defs>
  <rect width="100" height="100" fill="url(#indian-pattern)"/>
</svg>
